# xmcd
#
# Track frame offsets:
#	150
#	13811
#	27461
#	41117
#	55079
#	62649
#	84657
#	98491
#	111486
#	125251
#	139160
#	155090
#	169969
#	183046
#	196245
#	211936
#	229422
#	246426
#	263122
#	276004
#	291742
#	308526
#	320601
#	338690
#
# Disc length: 4680 seconds
#
# Revision: 1
# Processed by: cddbd v1.5.2PL0 Copyright (c) Steve Scherf et al.
# Submitted via: EZCDAudioConverter 2.1.7.1
#
DISCID=67124618
DTITLE=Ike Turner - Blues Roots/Bad Dreams
DYEAR=1900
DGENRE=
TTITLE0=You're Still My Baby
TTITLE1=Tacks In My Shoes
TTITLE2=The Things I Used To Do (I Don't Do No More)
TTITLE3=Goin' Home
TTITLE4=Lawdy Miss Clawdy
TTITLE5=Right On
TTITLE6=Think
TTITLE7=Rockin' Blues
TTITLE8=That's Alright
TTITLE9=My Babe
TTITLE10=Broken Hearted
TTITLE11=If You Love Me Like You Say
TTITLE12=These Dreams
TTITLE13=That's How Much I Love You
TTITLE14=One Nite Stand
TTITLE15=Dust My Broom
TTITLE16=Don't Hold Your Breath
TTITLE17=(You Can Have) The City
TTITLE18=Flockin' With You
TTITLE19=Take A Walk With Me
TTITLE20=You Won't Let Me Go
TTITLE21=Later For You Baby
TTITLE22=Rats
TTITLE23=I Love The Way You Love
EXTD=
EXTT0=
EXTT1=
EXTT2=
EXTT3=
EXTT4=
EXTT5=
EXTT6=
EXTT7=
EXTT8=
EXTT9=
EXTT10=
EXTT11=
EXTT12=
EXTT13=
EXTT14=
EXTT15=
EXTT16=
EXTT17=
EXTT18=
EXTT19=
EXTT20=
EXTT21=
EXTT22=
EXTT23=
PLAYORDER=
